<svg xmlns:xlink="http://www.w3.org/1999/xlink" xmlns="http://www.w3.org/2000/svg" role="img" focusable="false" aria-hidden="true" height="84" width="84"><defs><symbol id="hrf" viewBox="0 0 84 84"><path fill="currentColor" d="M57.663 42a4.525 4.525 0 0 1 4.225 2.921h2.157l1.978-12.359H63.91v-1.8h7.64v1.8h-3.73l-2.247 14.157h-3.416l.093 1.481a1.283 1.283 0 0 1-.36 1.034 1.443 1.443 0 0 1-.989.449H46.157v12.586h-1.348v5.483l18.876 1.8v5.393h-.18A3.577 3.577 0 0 1 62.787 82a3.6 3.6 0 0 1 0-7.191h-.045L44.85 73.1v.809h-5.434V73.1l-17.932 1.708a3.6 3.6 0 1 1-3.64 3.551A3.518 3.518 0 0 1 20.72 74.9h-.18v-5.4l18.876-1.8v-5.476h-1.348V49.64H23.281a1.443 1.443 0 0 1-.989-.449 1.233 1.233 0 0 1-.36-1.034l.09-1.483h-3.6L16.18 32.516h-3.73v-1.8h7.64v1.8h-2.112l1.978 12.359h2.382a4.525 4.525 0 0 1 4.225-2.921h31.1Zm2.787 5.842-.135-1.573a2.7 2.7 0 0 0-2.7-2.472H26.562a2.7 2.7 0 0 0-2.7 2.472l-.09 1.573Zm-20.584 1.8v10.784h4.494V49.64Zm22.921 26.964a1.8 1.8 0 1 0 1.8 1.8 1.8 1.8 0 0 0-1.8-1.8Zm-41.348 0a1.8 1.8 0 1 0 1.8 1.8 1.8 1.8 0 0 0-1.8-1.8Zm23.371-5.3 17.078 1.618v-1.8L44.809 69.5Zm-22.472-.18v1.8L39.416 71.3v-1.8Zm18.876.989h1.8v-9.891h-1.8Zm.9 9.888a3.6 3.6 0 1 1 3.6-3.6A3.606 3.606 0 0 1 42.113 82Zm0-5.393a1.8 1.8 0 1 0 1.8 1.8 1.8 1.8 0 0 0-1.801-1.804ZM28.85 39.3a4.487 4.487 0 0 1-4.494-4.225l-2.7-28.269A4.518 4.518 0 0 1 25.843 2h32.224a4.508 4.508 0 0 1 4.494 4.494v.27l-2.7 28.359a4.479 4.479 0 0 1-4.494 4.18Zm26.517-1.8a2.7 2.7 0 0 0 2.7-2.517l2.7-28.359A2.707 2.707 0 0 0 58.202 3.8H26.158a2.7 2.7 0 0 0-2.7 2.7v.18l2.7 28.269a2.709 2.709 0 0 0 2.7 2.562ZM28.45 16.786l-.494-1.708a58.691 58.691 0 0 1 14.157-2.292 64.274 64.274 0 0 1 13.707 1.843l-.449 1.753a66.628 66.628 0 0 0-13.258-1.753c-6.113 0-13.618 2.157-13.663 2.157Z"></path></symbol></defs>
                  <use xlink:href="#hrf"></use></svg>