<svg xmlns:xlink="http://www.w3.org/1999/xlink" xmlns="http://www.w3.org/2000/svg" role="img" focusable="false" aria-hidden="true" height="84" width="84"><defs><symbol id="automotive" viewBox="0 0 84 84"><path fill="currentColor" d="M76.854 69.29H64.095v-5.1h1.7v3.4h11.059a.853.853 0 0 0 .851-.851v-7.146l.851-.851V45.855l-1.318 1.318-17.269 1.915 2.764-4.806a7.2 7.2 0 0 1 5.019-3.53l9.059-1.7-4-2.3-1.021-2.3H12.207l-1.021 2.254-4 2.3 9.059 1.7a7.2 7.2 0 0 1 5.019 3.53l2.764 4.806-17.265-1.783L5.4 45.9v12.842l.851.851v7.145a.853.853 0 0 0 .851.851h11.06v-3.4h1.7v5.1H7.1a2.559 2.559 0 0 1-2.552-2.552v-6.464l-.848-.85V40.794a3.055 3.055 0 0 1 1.531-2.637l4.637-2.637.468-1.063L2 34.415v-4.253c0-1.361.851-2.212 2.509-2.552h.043l5.061-.638a2.7 2.7 0 0 1 2.935 2.128l.085.34 4.806-10.675a4.774 4.774 0 0 1 3.1-3.02C22.372 15.233 28.156 14 41.979 14s19.649 1.191 21.478 1.744a4.867 4.867 0 0 1 3.1 3.02l4.806 10.675.085-.34a2.682 2.682 0 0 1 2.935-2.127l5.1.638C81.149 27.95 82 28.8 82 30.162v4.253l-8.336.043.468 1.063 4.636 2.637a3.055 3.055 0 0 1 1.532 2.636v18.671l-.851.851v6.422a2.624 2.624 0 0 1-2.595 2.552ZM7.486 45.6 20.841 47l-1.106-1.91a5.446 5.446 0 0 0-3.828-2.679L5.87 40.5l-.468.936v2Zm70.686-5.1L68.05 42.41a5.571 5.571 0 0 0-3.828 2.679L63.116 47l13.355-1.489 2.084-2.084V41.39Zm-65.2-7.741h58.055l-6-13.27c-.51-1.148-.978-1.786-2-2.084-1.829-.51-7.443-1.7-21.053-1.7s-19.219 1.187-21.048 1.655c-1.021.3-1.489.936-2 2.084Zm59.585-.723.34.723 7.358-.043v-2.554c0-.3 0-.638-1.106-.851l-5.019-.638a.977.977 0 0 0-1.063.766l-.51 2.594ZM3.7 32.713h7.4l.34-.723h-.085l-.51-2.594a.987.987 0 0 0-1.063-.766l-4.976.68c-1.106.213-1.106.553-1.106.851Zm68.05 29.772H12.207v-1.7H71.75Zm-29.771-7.656-13.27-1.786-6.677-10.8 1.786.255a179.74 179.74 0 0 0 18.161 1.489c7.06 0 17.693-1.063 17.778-1.063l1.7-.17-6.166 10.289Zm-12.249-3.36 12.249 1.659 12.249-1.616 4.04-6.72c-3.317.3-10.8.936-16.247.936a159.564 159.564 0 0 1-16.629-1.276Z"></path></symbol></defs>
                  <use xlink:href="#automotive"></use></svg>