<svg xmlns:xlink="http://www.w3.org/1999/xlink" xmlns="http://www.w3.org/2000/svg" role="img" focusable="false" aria-hidden="true" height="84" width="84"><defs><symbol id="ima" viewBox="0 0 84 84"><path fill="currentColor" d="M77.238 76.571h-38.1v-1.9h8.571v-7.957l2.857-3.81v-6.333a6.708 6.708 0 0 1 1.952-4.714L66.1 38.286l1.762-16.952H51.81L40.19 45.571h-.048a6.569 6.569 0 0 1-5.762 3.381h-9.523v1.9H20.1v2.857h-8.719L2 50.571V46.1h16.19v-7.624H2V34l9.381-3.143H20.1v2.857h4.762v1.9h5.328L41.524 12l.048.048A6.728 6.728 0 0 1 47.714 8h27.619A6.686 6.686 0 0 1 82 14.667a5.175 5.175 0 0 1-.048.857H82L79.1 42.1a6.471 6.471 0 0 1-1.9 3.952L65.714 57.524h.1l.048 5.429 2.81 3.81v7.9h8.571Zm-27.619-1.9h17.143v-7.29l-2.81-3.81-.052-4.238-1.952 1.952a6.639 6.639 0 0 1-9.429 0l-.048-.048v2.333l-2.857 3.81Zm22.857-38.1a4.918 4.918 0 0 0-3.376 1.381L53.857 53.19a4.748 4.748 0 0 0 6.714 6.71L75.81 44.667a4.738 4.738 0 0 0-3.333-8.1ZM11.667 51.81h6.523V48H3.9v1.238Zm8.433-2.858h2.857V35.619H20.1Zm4.762-1.9h9.524a4.762 4.762 0 0 0 0-9.524h-9.529Zm7.476-11.429h2.048a6.666 6.666 0 0 1 6.333 4.524l9.048-18.81h-2.053a6.646 6.646 0 0 1-6.333-4.619Zm40.143-.952a6.708 6.708 0 0 1 4.714 1.952 3.279 3.279 0 0 1 .524.619l1.9-17.429a6.692 6.692 0 0 1-4.286 1.571H69.81l-1.572 14.854a6.407 6.407 0 0 1 4.238-1.571ZM3.9 35.333v1.238h14.29v-3.81h-6.523ZM47.714 9.9a4.762 4.762 0 0 0 0 9.524h27.619a4.762 4.762 0 0 0 0-9.524Zm9.524 49.524a2.866 2.866 0 0 1-2.857-2.857 2.666 2.666 0 0 1 .857-2l1.333 1.333a.943.943 0 0 0 1.329 1.338l1.333 1.333a2.666 2.666 0 0 1-1.995.858ZM34.381 45.143v-1.9a.952.952 0 0 0 0-1.9v-1.9a2.857 2.857 0 1 1 0 5.714Zm40-1.81L73.048 42a.943.943 0 0 0-1.333-1.333l-1.333-1.333a2.864 2.864 0 0 1 4.19 3.9.247.247 0 0 0-.19.1Zm.952-25.81v-1.9a.952.952 0 0 0 0-1.9v-1.9a2.857 2.857 0 0 1 0 5.714Zm-27.619 0a2.857 2.857 0 0 1 0-5.714v1.9a.952.952 0 0 0 0 1.9Z"></path></symbol></defs>
                  <use xlink:href="#ima"></use></svg>