<svg xmlns:xlink="http://www.w3.org/1999/xlink" xmlns="http://www.w3.org/2000/svg" role="img" focusable="false" aria-hidden="true" height="84" width="84"><defs><symbol id="comm-vehicles" viewBox="0 0 84 84"><path fill="currentColor" d="M69.3 77.071a12.711 12.711 0 0 1-12.734-12.732 12.449 12.449 0 0 1 1.228-5.457H41.105A20.946 20.946 0 0 0 6.365 43.15l-1.182-1.364a22.511 22.511 0 0 1 7.776-4.456l1.819-26.646H42.7l6.5 21.008 3.319.318-5.866-17.553-.091-7.412L48.381 7l.091 7.139 6 18.052 25.648 2.592L78.619 55.7A12.731 12.731 0 0 1 69.3 77.071Zm0-23.645a10.913 10.913 0 1 0 10.911 10.913A10.887 10.887 0 0 0 69.3 53.426Zm-26.467 3.638h16.006a12.753 12.753 0 0 1 17.734-3.183c.136.091.227.182.364.273l1.273-17.78-29.875-2.955H32.011V31.6h15.233l-5.911-19.1H16.505l-1.682 24.284a22.732 22.732 0 0 1 27.465 16.733 23.028 23.028 0 0 1 .545 3.547ZM21.6 77.026l-.591-1a9.837 9.837 0 0 1-1.637 0l-.591 1-.591-.045a20.656 20.656 0 0 1-2.319-.409l-.546-.136L15.1 75.3a58.476 58.476 0 0 1-1.546-.546l-.909.728-.5-.273a17.769 17.769 0 0 1-2-1.182l-.5-.318.182-1.137a14.149 14.149 0 0 1-1.273-1.046l-1.091.364-.409-.409a14.059 14.059 0 0 1-1.5-1.773l-.364-.455.546-1a11.272 11.272 0 0 1-.818-1.41l-1.137-.045-.227-.546a21.284 21.284 0 0 1-.818-2.183l-.136-.637.864-.773a10.25 10.25 0 0 1-.273-1.637L2.1 60.613l-.045-.591A9.89 9.89 0 0 1 2 58.883a11.094 11.094 0 0 1 .045-1.183l.045-.591 1.092-.409c.045-.546.182-1.091.273-1.637l-.864-.728.182-.546a17.931 17.931 0 0 1 .818-2.183l.227-.546 1.137-.045c.273-.5.546-.955.818-1.41l-.546-1.046.364-.455a14.059 14.059 0 0 1 1.5-1.773l.409-.409 1.091.364a14.152 14.152 0 0 1 1.273-1.046l-.179-1.14.5-.318a29.442 29.442 0 0 1 2-1.182l.5-.273.909.728a10.462 10.462 0 0 1 1.546-.546l.227-1.137.546-.136a20.657 20.657 0 0 1 2.319-.409l.591-.045.591 1a9.839 9.839 0 0 1 1.637 0l.591-1 .591.045a20.656 20.656 0 0 1 2.319.409l.546.136.227 1.137c.546.182 1.046.364 1.546.546l.909-.728.5.273a17.768 17.768 0 0 1 2 1.182l.5.318-.18 1.187a14.152 14.152 0 0 1 1.273 1.046l1.091-.364.409.409a14.059 14.059 0 0 1 1.5 1.773l.364.455-.546 1a11.271 11.271 0 0 1 .818 1.41l1.137.045.227.546a21.285 21.285 0 0 1 .818 2.183l.136.546-.864.773a10.25 10.25 0 0 1 .273 1.637l1.091.409.045.591a15.392 15.392 0 0 1 0 2.365l-.045.591-1.091.409-.273 1.637.864.773-.136.546a17.931 17.931 0 0 1-.818 2.183l-.227.546-1.137.045c-.273.5-.546.955-.818 1.41l.546 1-.364.455a14.059 14.059 0 0 1-1.5 1.773l-.409.409-1.091-.364A14.149 14.149 0 0 1 30.6 72.57l.182 1.137-.5.318c-.637.409-1.319.818-2 1.182l-.5.273-.909-.728a10.462 10.462 0 0 1-1.546.546l-.227 1.137-.546.136a20.656 20.656 0 0 1-2.319.409Zm-4.729-2.137c.318.045.637.136.955.182l.591-.955.546.045a11.5 11.5 0 0 0 2.5 0l.546-.045.591.955a7.062 7.062 0 0 0 .955-.182l.227-1.091.546-.136a12.822 12.822 0 0 0 2.319-.864l.5-.227.864.682a7.909 7.909 0 0 0 .818-.5l-.182-1.091.455-.318a16.107 16.107 0 0 0 1.91-1.591l.409-.409 1.046.364c.227-.227.409-.5.637-.728l-.546-.955.318-.455a14.393 14.393 0 0 0 1.224-2.139l.227-.5 1.091-.045c.091-.273.227-.591.318-.909l-.818-.728.136-.546a11.546 11.546 0 0 0 .409-2.455l.045-.546 1.046-.364v-1l-1-.409-.045-.546a23.041 23.041 0 0 0-.409-2.455l-.136-.546.818-.728c-.091-.318-.227-.591-.318-.909H34.33l-.227-.5a19.968 19.968 0 0 0-1.228-2.137l-.318-.455.543-.953a4.867 4.867 0 0 0-.637-.728l-1.046.364-.409-.409a12.668 12.668 0 0 0-1.91-1.591l-.455-.318.182-1.091a7.357 7.357 0 0 0-.818-.455l-.864.682-.591-.182a13.751 13.751 0 0 0-2.271-.872l-.546-.136-.227-1.091a7.06 7.06 0 0 0-.955-.182l-.546.909-.546-.045a11.5 11.5 0 0 0-2.5 0l-.546.045-.591-.955a7.059 7.059 0 0 0-.955.182l-.227 1.091-.546.136a12.821 12.821 0 0 0-2.319.864l-.5.227-.818-.682c-.273.136-.546.318-.818.455l.182 1.091-.455.318a16.47 16.47 0 0 0-1.91 1.637l-.409.409L8 48.015c-.227.227-.409.5-.637.728l.546.955-.318.455a14.393 14.393 0 0 0-1.228 2.137l-.227.5-1.091.045c-.091.318-.227.591-.318.909l.818.728-.136.546A11.546 11.546 0 0 0 5 57.473l-.045.546-1.137.409v1l1 .409.045.546a23.042 23.042 0 0 0 .409 2.455l.136.546-.818.728c.091.318.227.591.318.909L6 65.067l.227.5a19.967 19.967 0 0 0 1.23 2.133l.318.455-.546.955a4.867 4.867 0 0 0 .637.728l1.046-.364.409.409a12.668 12.668 0 0 0 1.91 1.591l.455.318-.186 1.096c.273.182.546.318.818.5l.864-.682.5.227a15.991 15.991 0 0 0 2.319.864l.546.136Zm52.428-6a4.547 4.547 0 1 1 4.547-4.547 4.56 4.56 0 0 1-4.546 4.544Zm0-7.275a2.728 2.728 0 1 0 2.728 2.728 2.736 2.736 0 0 0-2.727-2.731Zm-49.11 2.725a5.457 5.457 0 1 1 5.457-5.457 5.473 5.473 0 0 1-5.457 5.457Zm0-9.094a3.638 3.638 0 1 0 3.638 3.638 3.648 3.648 0 0 0-3.638-3.638ZM61.2 44.7l-2.725-6.37 1.682-.728 2.728 6.366Zm-4.547-.455-2.728-6.366 1.682-.728 2.728 6.366Zm-4.547-.455-2.725-6.37 1.682-.728 2.728 6.366ZM27.464 33.419H16.915l1.455-18.28 1.819.136L18.915 31.6h8.549Z"></path></symbol></defs>
                  <use xlink:href="#comm-vehicles"></use></svg>