<svg xmlns:xlink="http://www.w3.org/1999/xlink" xmlns="http://www.w3.org/2000/svg" role="img" focusable="false" aria-hidden="true" height="84" width="84"><defs><symbol id="energie-construction" viewBox="0 0 84 84"><path fill="currentColor" d="m25.719 82-1.819-.091 1.821-45.532 1.821.091Zm53.773-.046H28.451V65.882l2-.956-1.09-28.458 1.821-.091 1.093 27.729 11.656-5.464v6.375l13.66-6.375v6.375l8.378-3.917L67.7 41.886h8.97Zm-8.241-1.821h6.329l-2.6-36.426h-5.6l-1.5 16.528 3.369-1.594v21.492Zm-5.464 0h3.643V61.511l-13.66 6.374v-6.374l-13.66 6.374v-6.374L30.272 67.02v13.113h15.481V70.071h8.2v10.062Zm-18.213-.046h4.553v-8.15h-4.553ZM66.7 76.491h-7.287v-6.375H66.7Zm-5.464-1.821h3.643v-2.733h-3.645Zm-20.947 1.821H33v-6.375h7.285Zm-5.464-1.821h3.643v-2.733h-3.643ZM51.49 44.163a17.323 17.323 0 0 1-8.29-2.641 81.413 81.413 0 0 1-7.149-4.781 40.156 40.156 0 0 0-3.46-2.368l1.821-3.142a44.421 44.421 0 0 0 4.462 2.14 66.444 66.444 0 0 1 7.012 3.415c4.917 2.823 6.466 5.919 6.557 6.056l.592 1.229-1.366.091ZM33.55 32.78c1 .592 2.186 1.457 3.552 2.459a80.961 80.961 0 0 0 6.966 4.69 17.758 17.758 0 0 0 5.646 2.186 19.029 19.029 0 0 0-4.735-3.779 63.025 63.025 0 0 0-6.83-3.324 47.431 47.431 0 0 1-4.599-2.232ZM5.594 44.163h-.228L4 44.072l.592-1.229c.091-.137 1.639-3.233 6.557-6.056a71.475 71.475 0 0 1 7.74-3.779c1.5-.683 2.823-1.275 3.779-1.776l.911 1.594.911 1.594a50.783 50.783 0 0 0-4.1 2.823 62.5 62.5 0 0 1-6.511 4.371 17.869 17.869 0 0 1-8.285 2.549ZM23.533 32.78a40.7 40.7 0 0 1-3.916 1.867 68.48 68.48 0 0 0-7.558 3.734 19.029 19.029 0 0 0-4.735 3.779 19 19 0 0 0 5.646-2.231 58.349 58.349 0 0 0 6.283-4.234c1.366-1.048 2.823-2.005 4.28-2.915Zm4.917 1.867A4.553 4.553 0 1 1 33 30.093a4.567 4.567 0 0 1-4.549 4.554Zm0-7.285a2.732 2.732 0 1 0 2.732 2.732 2.74 2.74 0 0 0-2.732-2.732Zm1.821-2.777h-1.82a35.04 35.04 0 0 1 .364-4.371 73.935 73.935 0 0 0 .546-8.378 17.572 17.572 0 0 0-.911-5.965 17.745 17.745 0 0 0-.911 5.965 59.637 59.637 0 0 0 .5 7.558 49.807 49.807 0 0 1 .41 5.191h-1.82a59.41 59.41 0 0 0-.364-4.963 63.928 63.928 0 0 1-.546-7.786c0-5.692 1.912-8.56 1.958-8.7L28.451 2l.774 1.138c.046.137 1.958 3.005 1.958 8.7a76.488 76.488 0 0 1-.592 8.56c-.182 1.682-.319 3.093-.319 4.186Z"></path></symbol></defs>
                  <use xlink:href="#energie-construction"></use></svg>