<svg xmlns:xlink="http://www.w3.org/1999/xlink" xmlns="http://www.w3.org/2000/svg" role="img" focusable="false" aria-hidden="true" height="84" width="84"><defs><symbol id="aerospace" viewBox="0 0 84 84"><path fill="currentColor" d="M43.367 81.383h-2.778l-2.6-4.322-13.85 1.852 1.147-6.924 10.54-5.248-.838-18.787L2 50.644l2.205-8.732 30.739-8.82v-16.1C34.944 11.746 37.369 2 42 2c4.366 0 7.056 8.732 7.056 14.994v16.1l30.739 8.776L82 50.6l-32.944-2.69-.838 18.79 10.5 5.248 1.147 6.924-13.896-1.855Zm-2.249-11.467h1.764v8.864l2.205-3.66L57.7 76.8l-.617-3.66L46.41 67.8l.926-21.786 32.326 2.6-1.323-5.38-29.283-8.378v5.072h-1.764V16.994c0-6.439-2.734-13.23-5.292-13.23-2.47 0-5.292 7.056-5.292 13.23v22.933h-1.764v-4.983L5.7 43.323 4.381 48.7l32.326-2.6.926 21.786-10.716 5.338-.617 3.66 12.613-1.676 2.205 3.66v-8.952Zm3.175-56.979A2.762 2.762 0 0 0 42 11.261a2.688 2.688 0 0 0-2.293 1.676l-1.632-.662a4.162 4.162 0 0 1 7.85 0Z"></path></symbol></defs>
                  <use xlink:href="#aerospace"></use></svg>